HIERARCHY
ROOT Hips
{
 OFFSET 0.000000 0.000000 0.000000
 CHANNELS 6 Xposition Yposition Zposition Yrotation Xrotation Zrotation
 JOINT Chest
 {
  OFFSET 0.000000 9.588913 -0.003946
  CHANNELS 3 Yrotation Xrotation Zrotation
  JOINT Chest2
  {
   OFFSET 0.000000 9.541882 0.008053
   CHANNELS 3 Yrotation Xrotation Zrotation
   JOINT Chest3
   {
    OFFSET 0.000000 9.501360 0.000000
    CHANNELS 3 Yrotation Xrotation Zrotation
    JOINT Chest4
    {
     OFFSET 0.000000 9.491660 0.000000
     CHANNELS 3 Yrotation Xrotation Zrotation
     JOINT Neck
     {
      OFFSET 0.000000 14.331917 0.000000
      CHANNELS 3 Yrotation Xrotation Zrotation
      JOINT Head
      {
       OFFSET 0.000000 8.884799 0.017034
       CHANNELS 3 Yrotation Xrotation Zrotation
       End Site
       {
        OFFSET 0.000000 16.896195 0.008993
       }
      }
     }
     JOINT RightCollar
     {
      OFFSET -2.923010 9.499495 0.000000
      CHANNELS 3 Yrotation Xrotation Zrotation
      JOINT RightShoulder
      {
       OFFSET -13.795216 0.000000 0.000000
       CHANNELS 3 Yrotation Xrotation Zrotation
       JOINT RightElbow
       {
        OFFSET -30.272209 0.000000 0.000000
        CHANNELS 3 Yrotation Xrotation Zrotation
        JOINT RightWrist
        {
         OFFSET -24.478199 0.000000 0.000000
         CHANNELS 3 Yrotation Xrotation Zrotation
         End Site
         {
          OFFSET -18.090752 0.000000 0.000000
         }
        }
       }
      }
     }
     JOINT LeftCollar
     {
      OFFSET 2.923010 9.499495 0.000000
      CHANNELS 3 Yrotation Xrotation Zrotation
      JOINT LeftShoulder
      {
       OFFSET 13.795216 0.000000 0.000000
       CHANNELS 3 Yrotation Xrotation Zrotation
       JOINT LeftElbow
       {
        OFFSET 30.272209 0.000000 0.000000
        CHANNELS 3 Yrotation Xrotation Zrotation
        JOINT LeftWrist
        {
         OFFSET 24.478199 0.000000 0.000000
         CHANNELS 3 Yrotation Xrotation Zrotation
         End Site
         {
          OFFSET 18.090752 0.000000 0.000000
         }
        }
       }
      }
     }
    }
   }
  }
 }
 JOINT RightHip
 {
  OFFSET -7.826875 0.019532 0.001973
  CHANNELS 3 Yrotation Xrotation Zrotation
  JOINT RightKnee
  {
   OFFSET 0.000000 -40.546152 -0.001885
   CHANNELS 3 Yrotation Xrotation Zrotation
   JOINT RightAnkle
   {
    OFFSET 0.000000 -39.417092 -0.003189
    CHANNELS 3 Yrotation Xrotation Zrotation
    JOINT RightToe
    {
     OFFSET 0.000000 -7.579396 17.243563
     CHANNELS 3 Yrotation Xrotation Zrotation
     End Site
     {
      OFFSET 0.000000 -1.500329 6.694466
     }
    }
   }
  }
 }
 JOINT LeftHip
 {
  OFFSET 7.826875 0.019532 0.001973
  CHANNELS 3 Yrotation Xrotation Zrotation
  JOINT LeftKnee
  {
   OFFSET 0.000000 -40.546152 -0.001885
   CHANNELS 3 Yrotation Xrotation Zrotation
   JOINT LeftAnkle
   {
    OFFSET 0.000000 -39.417092 -0.003189
    CHANNELS 3 Yrotation Xrotation Zrotation
    JOINT LeftToe
    {
     OFFSET 0.000000 -7.579396 17.243563
     CHANNELS 3 Yrotation Xrotation Zrotation
     End Site
     {
      OFFSET 0.000000 -1.500329 6.694466
     }
    }
   }
  }
 }
}
MOTION
Frames: 7
Frame Time: 0.008333
-54.658313 87.253320 62.657351 22.737574 13.880906 2.176398 0.450951 14.689377 2.310483 -0.014804 8.441641 0.938467 0.003408 10.552000 1.175964 -0.014804 8.441641 0.938467 -12.470298 13.239762 9.305669 -26.888134 -7.803900 22.089370 11.078576 -9.946775 -7.539886 9.277855 -52.565789 46.456085 99.866884 3.776714 -15.364414 -1.523433 -3.985332 -13.306662 2.252451 -5.223845 0.758499 43.961053 -17.341413 -68.702702 -131.305974 2.658474 0.258209 -21.002914 -3.615287 41.119547 -21.267275 -27.201402 11.495474 -6.742530 20.751128 -1.641456 -3.033034 -6.000792 -5.336910 0.056486 0.857302 0.047529 -26.122159 -23.471478 8.635953 -2.969738 29.946586 1.642989 5.025625 -16.093613 -7.941982 -0.079219 -0.589542 -0.068862
-54.647089 87.260396 62.625161 22.681502 13.886378 2.174091 0.453157 14.689978 2.303512 -0.013773 8.442648 0.935560 0.004634 10.553257 1.172345 -0.013773 8.442648 0.935560 -12.468251 13.234228 9.297276 -26.883189 -7.817095 22.074945 11.096852 -9.960333 -7.546883 9.380406 -52.554275 46.366500 99.793073 3.800521 -15.373923 -1.590717 -3.976476 -13.229193 2.265614 -5.230781 0.746371 43.978761 -17.340651 -68.720392 -131.310187 2.651089 0.255578 -20.953588 -3.626052 41.075463 -21.243400 -27.176993 11.493654 -6.733331 20.649080 -1.640257 -3.017697 -5.945333 -5.346802 0.056504 0.858899 0.048397 -26.116118 -23.457290 8.622841 -2.941111 29.887330 1.659716 5.041609 -16.074932 -7.933820 -0.080795 -0.583999 -0.066094
-54.635648 87.267446 62.592374 22.628540 13.891109 2.170843 0.455013 14.690715 2.298196 -0.013004 8.443660 0.933324 0.005549 10.554521 1.169561 -0.013004 8.443660 0.933324 -12.466008 13.230365 9.289054 -26.877456 -7.827289 22.060272 11.115412 -9.968630 -7.559376 9.456621 -52.554600 46.295587 99.717456 3.826509 -15.360049 -1.653624 -3.964616 -13.170470 2.274163 -5.237957 0.734826 43.992751 -17.347546 -68.739360 -131.309012 2.642097 0.251236 -20.904022 -3.636200 41.037632 -21.213419 -27.148839 11.489790 -6.728488 20.539005 -1.639974 -3.003259 -5.888815 -5.357242 0.055526 0.862895 0.050516 -26.111706 -23.443535 8.614211 -2.915488 29.829010 1.668654 5.055632 -16.056562 -7.922649 -0.081726 -0.579152 -0.063247
-54.623631 87.274374 62.559196 22.578221 13.894342 2.167873 0.457618 14.692405 2.292876 -0.011644 8.444882 0.931069 0.007205 10.556044 1.166767 -0.011644 8.444881 0.931069 -12.464347 13.229466 9.282326 -26.872441 -7.831505 22.047645 11.126226 -9.975066 -7.569882 9.523477 -52.560864 46.230365 99.638648 3.845613 -15.330625 -1.699340 -3.959448 -13.127984 2.277996 -5.246049 0.727055 43.995808 -17.361995 -68.757513 -131.303017 2.639527 0.248184 -20.857904 -3.643500 41.007567 -21.181055 -27.116788 11.484281 -6.727585 20.422924 -1.641922 -2.987248 -5.832760 -5.367517 0.053915 0.868826 0.053157 -26.107304 -23.429825 8.607804 -2.899824 29.771583 1.667326 5.071441 -16.038619 -7.907004 -0.082218 -0.575193 -0.061258
-54.611234 87.281191 62.525531 22.529305 13.898147 2.164156 0.461527 14.694247 2.287501 -0.009196 8.445836 0.929058 0.010228 10.557231 1.164304 -0.009196 8.445836 0.929058 -12.463997 13.231539 9.276300 -26.869223 -7.829757 22.035842 11.127896 -9.982554 -7.575953 9.591320 -52.565103 46.159746 99.560445 3.847187 -15.292184 -1.729785 -3.961283 -13.099189 2.276912 -5.255224 0.722591 43.984853 -17.383264 -68.770870 -131.294404 2.647562 0.250569 -20.820766 -3.648548 40.983578 -21.148373 -27.082153 11.479292 -6.729706 20.300728 -1.644414 -2.969516 -5.776535 -5.378750 0.052459 0.875574 0.055955 -26.101230 -23.417728 8.602494 -2.893007 29.715260 1.661272 5.089653 -16.021018 -7.890030 -0.082646 -0.571815 -0.059576
-54.598393 87.287852 62.491510 22.479918 13.902429 2.159551 0.465938 14.694936 2.281749 -0.006209 8.446230 0.926948 0.013924 10.557716 1.161730 -0.006209 8.446230 0.926948 -12.463507 13.236962 9.269379 -26.864496 -7.822301 22.021351 11.126311 -9.990038 -7.577194 9.668253 -52.562279 46.075951 99.482336 3.835265 -15.251429 -1.750700 -3.967745 -13.081884 2.272433 -5.265183 0.723225 43.964672 -17.402610 -68.778519 -131.286629 2.659885 0.256541 -20.799769 -3.652195 40.968178 -21.113736 -27.045062 11.473944 -6.733298 20.172772 -1.645551 -2.951290 -5.720222 -5.391466 0.052120 0.882986 0.058731 -26.092469 -23.406472 8.596912 -2.887390 29.659365 1.655642 5.106673 -16.003980 -7.873287 -0.083159 -0.568228 -0.057738
-54.584669 87.294277 62.457409 22.428507 13.904990 2.155624 0.470552 14.694795 2.275466 -0.003284 8.446386 0.923833 0.017517 10.557904 1.157894 -0.003284 8.446386 0.923833 -12.461595 13.245882 9.261377 -26.855795 -7.809312 22.003376 11.124646 -9.995319 -7.574313 9.758132 -52.553241 45.978097 99.397169 3.818821 -15.216189 -1.757027 -3.977274 -13.084366 2.266138 -5.275518 0.729040 43.939661 -17.419246 -68.780077 -131.279529 2.668798 0.261556 -20.790437 -3.654123 40.963763 -21.075261 -27.005163 11.465128 -6.736786 20.041507 -1.644255 -2.933830 -5.665194 -5.406199 0.053514 0.891288 0.061896 -26.077972 -23.394555 8.587067 -2.882007 29.603799 1.651480 5.122364 -15.987471 -7.856516 -0.083673 -0.564607 -0.055882
